<?xml version="1.0" standalone="no"?>
<!DOCTYPE svg PUBLIC "-//W3C//DTD SVG 20010904//EN"
 "http://www.w3.org/TR/2001/REC-SVG-20010904/DTD/svg10.dtd">
<svg version="1.0" xmlns="http://www.w3.org/2000/svg"
 width="1024.000000pt" height="1024.000000pt" viewBox="0 0 1024.000000 1024.000000"
 preserveAspectRatio="xMidYMid meet">

<g transform="translate(0.000000,1024.000000) scale(0.100000,-0.100000)"
fill="#000000" stroke="none">
<path d="M2759 7700 c-38 -20 -99 -75 -99 -90 0 -4 -19 -1 -43 8 -37 13 -49
14 -90 2 -26 -8 -47 -18 -47 -22 0 -11 5 -10 47 7 29 12 43 13 72 4 59 -19 54
-24 -27 -24 -65 0 -86 -5 -130 -28 -68 -36 -138 -105 -163 -163 -32 -71 -34
-128 -9 -239 20 -86 22 -105 12 -155 -16 -76 -15 -112 4 -160 18 -45 60 -80
97 -80 59 0 163 56 187 99 6 12 6 37 -2 72 -15 74 5 123 59 146 33 13 41 13
62 2 38 -22 63 -63 68 -113 6 -51 18 -58 35 -21 6 14 16 25 22 26 6 0 48 2 94
2 80 2 85 3 112 34 18 20 31 48 35 78 l7 46 62 -59 c79 -76 149 -112 216 -112
64 0 103 17 159 69 24 23 46 39 48 37 9 -9 -18 -46 -50 -69 -47 -35 -90 -47
-176 -48 -66 -1 -71 -2 -41 -10 77 -20 220 18 260 69 11 13 20 39 20 57 0 18
9 52 20 76 40 89 14 196 -61 246 -28 18 -60 28 -120 34 -111 13 -153 34 -250
125 -50 46 -105 87 -138 102 -106 49 -214 39 -298 -25 -34 -26 -44 -30 -41
-17 5 26 82 82 130 95 23 6 57 8 77 4 26 -4 32 -3 21 4 -24 17 -102 12 -141
-9z m807 -557 c-15 -29 -86 -103 -86 -89 0 4 18 28 39 53 22 24 43 59 47 76 7
27 9 28 12 10 2 -12 -3 -34 -12 -50z m-1233 -315 c22 -51 6 -48 -23 4 -24 43
-31 108 -15 143 7 16 10 5 15 -45 4 -36 14 -82 23 -102z"/>
<path d="M7771 7091 c63 -40 115 -102 156 -188 38 -78 61 -99 38 -34 -17 50
-59 117 -99 159 -37 41 -109 92 -128 92 -7 0 8 -13 33 -29z"/>
<path d="M2634 7012 c-6 -4 -14 -16 -17 -27 -7 -19 -6 -19 7 -2 23 29 36 20
36 -25 1 -35 3 -39 11 -25 25 42 -3 103 -37 79z"/>
<path d="M2975 6950 c-8 -13 12 -40 29 -40 6 0 40 -14 76 -30 48 -21 68 -26
78 -18 20 17 -30 62 -90 82 -58 19 -84 20 -93 6z"/>
<path d="M2630 6903 c0 -13 29 -38 35 -31 3 3 -4 13 -15 23 -11 10 -20 13 -20
8z"/>
<path d="M3046 6831 c-22 -24 -32 -86 -16 -96 20 -13 52 29 54 71 1 43 -13 53
-38 25z"/>
<path d="M2594 6613 c9 -58 24 -107 39 -127 13 -17 14 -17 30 8 17 25 17 27
-24 91 -22 36 -43 65 -46 65 -3 0 -3 -17 1 -37z"/>
<path d="M7170 6592 c-81 -40 -9 -70 77 -32 45 20 47 22 29 36 -26 19 -63 18
-106 -4z"/>
<path d="M7556 6594 c-10 -26 -7 -41 15 -65 l20 -24 -15 25 c-9 14 -13 38 -11
53 6 30 1 36 -9 11z"/>
<path d="M2960 6566 c0 -2 8 -10 18 -17 15 -13 16 -12 3 4 -13 16 -21 21 -21
13z"/>
<path d="M7196 6504 c-11 -30 -6 -61 15 -88 17 -21 24 -24 35 -15 8 6 14 26
14 43 0 55 -48 101 -64 60z"/>
<path d="M7590 6485 c0 -8 2 -15 4 -15 2 0 6 7 10 15 3 8 1 15 -4 15 -6 0 -10
-7 -10 -15z"/>
<path d="M1772 6301 c-66 -23 -139 -92 -181 -170 -60 -113 -98 -324 -86 -476
36 -439 316 -1053 628 -1377 l74 -77 -13 -103 c-7 -57 -13 -114 -14 -128 l0
-26 88 8 c123 10 405 10 2858 4 2122 -6 2182 -5 2205 13 19 15 23 28 24 72 l0
54 -390 2 c-856 5 -4066 3 -4075 -2 -6 -3 -10 -17 -10 -30 0 -21 -6 -25 -46
-31 -90 -13 -252 2 -350 34 -144 46 -215 90 -335 211 -306 308 -597 950 -625
1381 -10 157 22 344 79 459 30 61 104 136 157 160 90 41 188 19 274 -60 50
-46 189 -238 217 -301 7 -16 16 -28 21 -28 13 0 -38 95 -102 190 -136 201
-261 270 -398 221z"/>
<path d="M7549 6200 c-21 -40 -24 -53 -15 -66 10 -13 14 -13 23 -2 13 15 34
118 24 118 -3 0 -18 -23 -32 -50z"/>
<path d="M7259 6223 c-13 -16 -12 -17 4 -4 16 13 21 21 13 21 -2 0 -10 -8 -17
-17z"/>
<path d="M7995 5941 c-64 -16 -113 -47 -185 -120 -80 -81 -88 -91 -244 -328
-100 -152 -149 -229 -195 -307 l-24 -41 26 30 c14 17 56 81 94 144 37 62 80
129 95 149 15 19 28 40 28 47 0 6 11 22 25 35 14 13 25 29 25 36 0 17 130 176
197 243 143 139 299 134 399 -12 129 -187 106 -516 -63 -893 -90 -202 -250
-443 -361 -547 -29 -26 -52 -50 -52 -53 0 -14 75 55 136 127 164 192 309 464
391 732 41 135 55 339 32 462 -26 143 -112 260 -210 289 -57 17 -68 18 -114 7z"/>
<path d="M2674 5845 c14 -200 16 -270 16 -507 l-1 -247 34 -68 c55 -108 55
-108 4 -133 -47 -24 -170 -129 -151 -130 6 0 19 9 30 21 57 63 168 125 299
169 55 18 103 35 107 37 4 2 1 21 -7 41 -7 20 -48 134 -90 252 -136 384 -231
639 -242 650 -3 3 -2 -35 1 -85z m66 -250 c7 -9 8 -15 2 -15 -5 0 -12 7 -16
15 -3 8 -4 15 -2 15 2 0 9 -7 16 -15z m7 -55 c1 -16 -1 -17 -12 -7 -11 10 -8
19 10 27 1 0 1 -9 2 -20z m93 -154 c0 -3 -4 -8 -10 -11 -5 -3 -10 -1 -10 4 0
6 5 11 10 11 6 0 10 -2 10 -4z"/>
<path d="M7316 5098 c-52 -85 -86 -152 -79 -158 4 -4 26 -13 48 -20 22 -7 73
-28 114 -47 40 -18 76 -33 80 -33 16 0 -72 46 -144 76 -47 19 -79 38 -77 45 2
7 18 38 36 68 34 59 48 91 41 91 -3 0 -11 -10 -19 -22z"/>
<path d="M3690 5056 c0 -9 89 -248 95 -254 2 -2 25 10 51 27 56 35 52 41 -7
11 -30 -16 -40 -18 -44 -8 -51 148 -94 248 -95 224z"/>
<path d="M4315 5001 c26 -28 29 -37 27 -91 -3 -62 9 -100 31 -100 7 0 6 4 -3
10 -11 7 -14 25 -12 71 3 79 -1 90 -41 119 l-32 23 30 -32z"/>
<path d="M5875 4969 c-52 -26 -63 -41 -71 -105 -3 -30 -15 -65 -26 -79 -11
-14 -16 -30 -12 -36 10 -17 42 47 49 101 11 72 14 79 61 106 24 14 44 28 44
30 0 6 0 5 -45 -17z"/>
<path d="M4220 4911 c0 -12 68 -71 82 -71 7 0 -1 14 -18 31 -33 35 -64 54 -64
40z"/>
<path d="M6346 4869 c-20 -22 -42 -52 -47 -67 -17 -44 -27 -112 -18 -118 5 -3
9 6 9 20 0 47 40 134 75 165 19 17 35 33 35 36 0 15 -22 1 -54 -36z"/>
<path d="M3955 4880 c-38 -5 -20 -6 48 -3 95 4 111 2 130 -14 l22 -18 -19 23
c-21 24 -56 26 -181 12z"/>
<path d="M5891 4880 c-36 -9 -69 -35 -58 -46 4 -4 15 0 24 9 10 8 36 17 57 19
22 2 41 9 44 16 4 13 -15 14 -67 2z"/>
<path d="M4203 4833 c9 -2 25 -2 35 0 9 3 1 5 -18 5 -19 0 -27 -2 -17 -5z"/>
<path d="M4030 4628 c-30 -23 -119 -93 -197 -155 l-143 -113 0 -55 0 -55 1365
0 1365 0 0 53 0 54 -112 94 c-62 51 -146 122 -185 156 l-73 63 -100 0 c-104 0
-110 -3 -94 -44 5 -13 23 -16 91 -16 70 0 88 -3 99 -17 7 -10 14 -20 14 -23 0
-3 -34 -4 -75 -2 -85 5 -107 0 -99 -23 5 -12 26 -15 113 -15 99 0 109 -2 129
-23 12 -13 22 -26 22 -30 0 -4 -47 -7 -104 -7 -101 0 -105 1 -123 26 -17 23
-23 25 -41 15 -11 -6 -57 -11 -101 -11 -69 0 -82 3 -91 19 -14 27 -13 31 9 31
19 0 35 23 24 34 -4 3 -19 6 -34 6 -15 0 -31 5 -34 10 -4 6 10 10 33 10 29 0
41 5 46 18 3 9 8 22 11 27 3 6 -59 11 -175 13 -173 2 -180 2 -180 -17 0 -15 8
-21 32 -23 22 -2 34 -9 36 -21 3 -16 -2 -18 -29 -15 -20 2 -34 -2 -36 -9 -3
-9 8 -13 35 -13 27 0 42 -5 46 -16 11 -28 7 -33 -34 -36 -59 -4 -54 -22 7 -26
48 -3 51 -1 46 18 -5 19 -1 20 89 20 92 0 95 -1 106 -25 7 -14 12 -28 12 -31
0 -3 -45 -4 -100 -2 -85 3 -100 1 -98 -12 3 -12 25 -16 116 -18 l112 -3 16
-30 c8 -17 14 -32 12 -34 -9 -9 -239 -8 -247 0 -5 6 -11 21 -13 35 -3 25 -4
25 -115 28 l-113 3 0 -36 c0 -21 -5 -35 -13 -35 -8 0 -11 14 -9 45 5 53 3 53
-136 57 -73 2 -91 0 -87 -10 3 -8 5 -16 5 -18 0 -3 46 -4 103 -3 l102 2 0 -34
0 -34 -107 -3 -108 -3 0 36 0 36 -92 -3 -92 -3 -8 -32 -9 -33 -115 0 -115 0
16 30 c8 16 15 31 15 35 0 3 -50 5 -110 5 l-110 0 -7 -30 c-3 -17 -14 -35 -24
-40 -21 -12 -79 -13 -79 -2 0 17 67 72 87 72 12 0 25 5 28 10 3 6 -5 10 -19
10 -14 0 -28 -4 -31 -10 -7 -12 -185 -14 -185 -2 0 5 9 17 19 26 18 16 39 17
235 12 190 -6 216 -5 216 9 0 8 7 15 16 15 8 0 12 5 9 10 -4 6 29 10 93 10
l99 0 -4 -25 c-5 -24 -7 -24 -111 -27 -70 -2 -107 -7 -109 -15 -3 -8 26 -13
103 -15 103 -3 107 -2 115 20 8 20 15 22 88 22 61 0 80 3 85 15 4 13 -8 15
-75 15 -78 0 -80 1 -77 23 3 20 9 22 76 25 66 3 72 1 72 -17 0 -19 7 -21 103
-23 94 -3 102 -5 105 -23 2 -17 9 -20 37 -17 22 3 35 10 35 18 0 10 -7 13 -22
9 -30 -8 -63 17 -55 39 4 11 18 16 42 16 19 0 35 5 35 10 0 6 -15 10 -34 10
-22 0 -36 6 -40 16 -9 24 -9 24 39 24 38 0 45 3 45 20 0 20 -7 20 -355 20
-209 0 -355 -4 -355 -9 0 -31 14 -41 57 -41 37 0 44 -3 39 -16 -3 -9 -6 -18
-6 -20 0 -2 -17 -5 -37 -5 -24 -1 -29 -3 -15 -6 24 -5 27 -15 12 -44 -9 -17
-22 -19 -105 -19 -57 0 -95 4 -95 10 0 6 3 10 8 10 4 0 12 10 17 23 10 21 9
22 -35 18 -33 -3 -40 -6 -25 -11 11 -4 27 -5 35 -2 9 3 4 -7 -10 -22 -25 -28
-26 -28 -127 -24 -97 4 -104 4 -125 -19 -20 -21 -29 -23 -125 -23 -57 0 -103
3 -103 8 0 4 16 20 35 35 35 27 40 28 131 26 82 -3 97 0 105 14 9 15 2 17 -82
17 l-93 0 34 25 c28 20 45 25 96 25 61 0 74 7 74 41 0 5 -39 9 -87 9 -88 0
-88 0 -143 -42z m1650 2 c13 -8 13 -10 -2 -10 -9 0 -20 5 -23 10 -8 13 5 13
25 0z m-645 -10 c3 -5 46 -10 96 -10 82 0 89 -1 89 -20 0 -19 -7 -20 -96 -20
-76 0 -95 3 -91 13 4 11 -10 14 -63 14 -70 1 -95 7 -85 24 8 12 142 12 150 -1z
m-165 -30 c0 -18 -7 -20 -84 -20 -79 0 -84 1 -79 20 5 18 14 20 84 20 72 0 79
-2 79 -20z m775 -1 c4 -11 5 -22 3 -23 -1 -2 -41 0 -88 3 -70 5 -85 9 -88 24
-3 15 6 17 82 17 77 0 85 -2 91 -21z m283 -121 c24 -24 10 -28 -93 -28 -58 0
-105 2 -105 4 0 2 -3 11 -6 20 -5 14 7 16 93 16 64 0 103 -4 111 -12z m-1803
-58 l-39 -40 -121 0 -120 1 42 39 42 40 118 0 117 0 -39 -40z m2090 0 l39 -40
-129 0 -130 0 -22 35 c-13 19 -23 37 -23 40 0 3 51 5 113 5 l113 0 39 -40z"/>
<path d="M4350 4663 c0 -5 7 -16 14 -25 10 -14 28 -18 80 -18 64 0 66 1 66 25
0 25 -1 25 -80 25 -44 0 -80 -3 -80 -7z"/>
<path d="M3777 3485 c-4 -16 -25 -156 -47 -310 -23 -154 -57 -386 -76 -515
-64 -430 -144 -1001 -144 -1026 0 -20 -5 -24 -30 -24 -16 0 -30 -4 -30 -10 0
-5 11 -10 25 -10 20 0 25 -5 25 -26 0 -26 1 -26 53 -20 219 27 490 92 495 119
2 8 -13 127 -32 264 -19 136 -47 334 -61 438 -13 105 -32 237 -40 295 -8 58
-35 251 -60 430 -25 179 -52 348 -59 375 -12 48 -13 49 -19 20z"/>
<path d="M1037 2876 c-4 -10 8 -15 46 -20 77 -9 84 -8 90 14 5 19 0 20 -63 20
-48 0 -69 -4 -73 -14z"/>
<path d="M2037 2870 c5 -18 14 -20 80 -20 64 0 74 2 69 16 -3 9 -6 18 -6 20 0
2 -33 4 -74 4 -69 0 -74 -1 -69 -20z"/>
<path d="M7970 2870 c0 -19 5 -21 72 -18 60 2 73 6 76 21 3 15 -6 17 -72 17
-70 0 -76 -2 -76 -20z"/>
<path d="M8982 2868 c3 -22 7 -23 73 -20 39 2 71 5 73 7 1 1 0 10 -4 19 -5 13
-20 16 -76 16 -66 0 -69 -1 -66 -22z"/>
<path d="M7262 2684 c-18 -110 -48 -318 -68 -464 -20 -146 -44 -328 -55 -404
-11 -84 -24 -143 -31 -148 -7 -4 -43 -8 -80 -8 -43 0 -68 -4 -68 -11 0 -8 24
-9 81 -4 l81 7 -8 -53 c-7 -56 -8 -88 -1 -95 4 -4 64 6 172 31 39 9 81 19 95
22 14 2 34 9 45 13 11 5 46 19 78 30 31 12 57 28 57 35 0 7 -11 60 -25 117
-27 113 -124 578 -187 898 -22 113 -43 211 -47 219 -5 7 -22 -74 -39 -185z"/>
<path d="M6590 1696 c14 -8 27 -12 29 -10 6 6 -1 11 -29 18 l-25 7 25 -15z"/>
<path d="M6635 1682 c6 -5 46 -12 90 -15 95 -7 71 7 -30 17 -43 4 -66 3 -60
-2z"/>
<path d="M2629 1632 c8 -6 77 -13 155 -16 77 -4 153 -9 169 -12 15 -3 27 -1
27 4 0 5 -48 13 -107 16 -60 4 -142 9 -183 12 -49 3 -70 2 -61 -4z"/>
<path d="M3000 1611 c0 -7 50 -11 147 -11 80 0 144 2 142 4 -2 2 -68 7 -146
10 -99 5 -143 4 -143 -3z"/>
<path d="M6274 1542 c10 -16 240 -89 324 -103 70 -12 109 -8 98 10 -3 5 -27
12 -53 15 -54 8 -328 71 -357 82 -13 5 -17 4 -12 -4z"/>
<path d="M2830 1425 c86 -16 310 -20 310 -6 0 5 -33 9 -72 8 -40 -1 -127 1
-193 5 l-120 6 75 -13z"/>
<path d="M3943 1410 c-72 -32 -154 -43 -285 -38 -68 3 -131 9 -140 13 -10 4
-18 3 -18 -3 0 -15 105 -32 199 -32 102 0 203 20 274 54 61 28 33 34 -30 6z"/>
<path d="M4082 1379 c-7 -12 -11 -23 -8 -26 8 -9 36 17 36 33 0 20 -13 17 -28
-7z"/>
<path d="M4150 1351 c-12 -24 -13 -31 -2 -31 5 0 14 11 20 25 14 29 -2 34 -18
6z"/>
<path d="M4211 1336 c-13 -33 -9 -43 8 -22 7 8 11 23 8 33 -3 14 -6 12 -16
-11z"/>
<path d="M4280 1323 c0 -6 -3 -18 -6 -27 -3 -9 -2 -16 4 -16 15 0 24 32 12 44
-7 7 -10 7 -10 -1z"/>
<path d="M4370 1299 c0 -3 26 -13 58 -23 89 -28 272 -120 321 -162 44 -38 91
-121 91 -161 l0 -23 -425 0 c-234 0 -425 -2 -425 -5 0 -4 8 -20 17 -38 19 -37
33 -105 26 -124 -4 -10 -64 -13 -292 -13 l-287 0 -11 -30 c-24 -62 -102 -64
-132 -3 l-16 33 -272 0 -271 0 -20 33 c-20 34 -74 67 -110 67 -12 0 -23 4 -26
8 -12 20 16 222 44 313 16 53 30 100 30 104 0 8 -108 0 -116 -8 -2 -2 6 -63
18 -135 22 -128 22 -131 4 -151 -19 -21 -61 -28 -82 -13 -19 12 -31 44 -48
127 -10 44 -22 97 -27 119 l-10 38 -117 -6 c-64 -4 -157 -9 -207 -11 -167 -9
-300 -16 -350 -19 -27 -2 -113 -7 -190 -11 -127 -7 -170 -11 -170 -15 0 -1
-44 -3 -98 -5 -54 -2 -148 -9 -210 -15 -61 -6 -131 -11 -155 -12 -34 -1 -43
-5 -47 -22 -2 -12 -12 -61 -20 -111 -19 -104 -35 -135 -71 -135 -68 0 -82 39
-59 165 9 48 14 89 11 92 -16 16 -549 -69 -688 -109 l-38 -11 0 -133 c0 -130
1 -134 23 -139 118 -26 163 -35 232 -45 44 -6 91 -13 105 -15 20 -4 196 -25
400 -50 213 -25 476 -50 810 -75 74 -6 162 -12 195 -15 33 -2 101 -7 150 -10
50 -3 113 -8 140 -10 28 -3 138 -9 245 -15 201 -10 257 -14 520 -30 85 -5 207
-12 270 -15 63 -3 140 -8 170 -10 179 -14 725 -20 1890 -20 1124 0 1361 3
1630 17 173 10 414 23 535 28 240 12 833 48 905 55 25 3 162 14 305 25 742 57
1502 151 1668 206 l47 16 0 103 0 103 -47 16 c-78 26 -327 74 -552 106 -115
16 -211 30 -214 30 -2 0 4 -42 14 -92 10 -51 18 -99 18 -105 1 -22 -38 -53
-67 -53 -46 0 -62 29 -85 149 l-21 111 -31 2 c-16 0 -41 2 -55 4 -43 5 -264
16 -285 14 -11 -1 -24 -1 -30 0 -5 0 -37 2 -70 4 -33 2 -98 7 -145 11 -47 3
-125 8 -175 10 -49 2 -119 7 -155 10 -36 3 -117 8 -180 10 -201 7 -343 16
-351 21 -13 7 -17 -7 -35 -112 -21 -126 -35 -161 -68 -170 -43 -10 -74 3 -81
34 -5 23 12 172 27 243 2 10 -13 15 -57 20 -33 3 -63 4 -67 2 -3 -2 9 -47 27
-101 32 -92 60 -258 48 -289 -3 -7 -17 -13 -32 -13 -64 0 -151 -42 -151 -73 0
-6 10 -1 23 11 28 27 63 39 118 43 l44 4 3 -47 3 -47 -321 -1 c-177 0 -326 -3
-331 -6 -5 -3 -9 -14 -9 -24 0 -24 -37 -50 -71 -50 -28 0 -69 39 -69 66 0 12
-112 14 -681 14 l-682 0 7 41 c20 127 107 200 379 319 94 42 98 42 117 25 11
-10 20 -13 20 -7 0 6 -4 14 -10 17 -18 11 -10 22 31 41 l41 18 19 -23 c11 -13
22 -22 24 -19 3 3 -1 11 -10 18 -21 18 -19 35 8 47 18 9 25 7 44 -16 11 -14
25 -23 29 -18 4 4 -3 18 -15 31 l-23 24 28 19 c28 18 28 18 -116 23 -317 12
-1650 19 -1650 9z m-1713 -470 c35 -13 73 -48 73 -66 0 -11 -16 -13 -67 -11
l-68 3 -3 43 c-3 36 0 42 17 42 11 0 32 -5 48 -11z"/>
<path d="M3450 1228 c0 -86 15 -81 25 10 6 53 5 62 -9 62 -13 0 -16 -13 -16
-72z"/>
<path d="M3206 1276 c3 -7 23 -22 45 -32 33 -14 40 -22 36 -41 -2 -12 0 -20 4
-17 5 3 9 27 9 55 l0 49 -50 0 c-38 0 -48 -3 -44 -14z"/>
<path d="M6190 1279 c0 -18 106 -59 192 -76 68 -13 98 -14 165 -5 45 6 91 17
102 24 11 7 23 10 26 7 3 -3 14 -39 24 -80 21 -80 24 -82 78 -46 32 22 33 23
33 100 l0 77 -74 0 c-70 0 -75 -1 -78 -22 -4 -33 -55 -47 -168 -47 -106 -1
-191 17 -257 54 -24 13 -43 19 -43 14z"/>
<path d="M6960 1252 c0 -27 15 -52 32 -52 5 0 4 9 -2 21 -7 11 -9 27 -6 34 2
7 -2 16 -10 19 -10 4 -14 -2 -14 -22z"/>
<path d="M7025 1262 c22 -23 148 -52 224 -52 83 1 218 22 248 39 26 15 4 13
-53 -4 -27 -9 -96 -18 -154 -21 -102 -5 -161 4 -255 41 -14 6 -17 5 -10 -3z"/>
<path d="M3075 1237 c-67 -28 -251 -30 -339 -3 -61 18 -86 17 -39 -3 114 -46
350 -39 424 13 31 21 16 19 -46 -7z"/>
<path d="M3203 1228 c-18 -24 -24 -38 -16 -38 11 1 46 50 35 50 -5 0 -14 -6
-19 -12z"/>
<path d="M3242 1185 c-6 -14 -8 -25 -3 -25 8 0 23 41 17 47 -1 2 -8 -8 -14
-22z"/>
<path d="M6627 860 c-56 -11 -58 -21 -1 -13 27 4 61 8 77 8 15 0 27 3 27 8 0
9 -51 7 -103 -3z"/>
</g>
</svg>
